<?xml version="1.0" encoding="UTF-8" standalone="no"?>
<!-- Generator: Adobe Illustrator 19.0.0, SVG Export Plug-In . SVG Version: 6.00 Build 0)  -->

<svg
   xmlns:dc="http://purl.org/dc/elements/1.1/"
   xmlns:cc="http://creativecommons.org/ns#"
   xmlns:rdf="http://www.w3.org/1999/02/22-rdf-syntax-ns#"
   xmlns:svg="http://www.w3.org/2000/svg"
   xmlns="http://www.w3.org/2000/svg"
   xmlns:sodipodi="http://sodipodi.sourceforge.net/DTD/sodipodi-0.dtd"
   xmlns:inkscape="http://www.inkscape.org/namespaces/inkscape"
   version="1.1"
   id="Layer_1"
   x="0px"
   y="0px"
   viewBox="0 0 512 512"
   style="enable-background:new 0 0 512 512;"
   xml:space="preserve"
   inkscape:version="0.91 r"
   sodipodi:docname="poll (copy).svg"><metadata
     id="metadata117"><rdf:RDF><cc:Work
         rdf:about=""><dc:format>image/svg+xml</dc:format><dc:type
           rdf:resource="http://purl.org/dc/dcmitype/StillImage" /><dc:title></dc:title></cc:Work></rdf:RDF></metadata><defs
     id="defs115" /><sodipodi:namedview
     pagecolor="#ffffff"
     bordercolor="#666666"
     borderopacity="1"
     objecttolerance="10"
     gridtolerance="10"
     guidetolerance="10"
     inkscape:pageopacity="0"
     inkscape:pageshadow="2"
     inkscape:window-width="1871"
     inkscape:window-height="1056"
     id="namedview113"
     showgrid="false"
     inkscape:zoom="0.921875"
     inkscape:cx="239.92141"
     inkscape:cy="217.32039"
     inkscape:window-x="49"
     inkscape:window-y="24"
     inkscape:window-maximized="1"
     inkscape:current-layer="Layer_1" /><g
     id="g83" /><g
     id="g85" /><g
     id="g87" /><g
     id="g89" /><g
     id="g91" /><g
     id="g93" /><g
     id="g95" /><g
     id="g97" /><g
     id="g99" /><g
     id="g101" /><g
     id="g103" /><g
     id="g105" /><g
     id="g107" /><g
     id="g109" /><g
     id="g111" /><g
     id="g5223"
     transform="matrix(1.0508475,0,0,1.0508475,-13.016963,-21.220883)"><g
       id="g5196"><g
         id="g5" /><g
         id="g9"><path
           inkscape:connector-curvature="0"
           id="path11"
           d="m 415.6,72 c 4.639,0 8.4,3.728 8.4,8.327 l 0,391.347 c 0,4.599 -3.761,8.327 -8.4,8.327 l -319.2,0 c -4.639,0 -8.4,-3.728 -8.4,-8.327 L 88,80.326 C 88,75.728 91.761,72 96.4,72 l 319.2,0 z"
           style="fill:#f2f2f2" /></g><g
         id="g13"><g
           id="g15"><path
             inkscape:connector-curvature="0"
             id="path17"
             d="m 200,216 -48,0 c -8.82,0 -16,-7.18 -16,-16 l 0,-48 c 0,-8.82 7.18,-16 16,-16 l 48,0 c 8.82,0 16,7.18 16,16 l 0,48 c 0,8.82 -7.18,16 -16,16 z m -48,-64 0,48 48.016,0 -0.016,-48 -48,0 z"
             style="fill:#b4b6bc" /></g></g><g
         id="g25"
         transform="translate(0,-8)"><g
           id="g27"><path
             inkscape:connector-curvature="0"
             id="path29"
             d="m 360,192 -120,0 c -4.422,0 -8,-3.578 -8,-8 0,-4.422 3.578,-8 8,-8 l 120,0 c 4.422,0 8,3.578 8,8 0,4.422 -3.578,8 -8,8 z"
             style="fill:#868491" /></g></g><g
         id="g37"
         transform="translate(0,-16)"><g
           id="g39"><path
             inkscape:connector-curvature="0"
             id="path41"
             d="m 360,304 -120,0 c -4.422,0 -8,-3.578 -8,-8 0,-4.422 3.578,-8 8,-8 l 120,0 c 4.422,0 8,3.578 8,8 0,4.422 -3.578,8 -8,8 z"
             style="fill:#868491" /></g></g><g
         id="g49"
         transform="translate(0,-16)"><g
           id="g51"><path
             inkscape:connector-curvature="0"
             id="path53"
             d="m 360,408 -120,0 c -4.422,0 -8,-3.578 -8,-8 0,-4.422 3.578,-8 8,-8 l 120,0 c 4.422,0 8,3.578 8,8 0,4.422 -3.578,8 -8,8 z"
             style="fill:#868491" /></g></g><g
         id="g65"><g
           id="g67"><path
             inkscape:connector-curvature="0"
             id="path69"
             d="m 200,320 -48,0 c -8.82,0 -16,-7.18 -16,-16 l 0,-48 c 0,-8.82 7.18,-16 16,-16 l 48,0 c 8.82,0 16,7.18 16,16 l 0,48 c 0,8.82 -7.18,16 -16,16 z m -48,-64 0,48 48.016,0 -0.016,-48 -48,0 z"
             style="fill:#b4b6bc" /></g></g><g
         id="g71"><g
           id="g73"><path
             inkscape:connector-curvature="0"
             id="path75"
             d="m 200,424 -48,0 c -8.82,0 -16,-7.18 -16,-16 l 0,-48 c 0,-8.82 7.18,-16 16,-16 l 48,0 c 8.82,0 16,7.18 16,16 l 0,48 c 0,8.82 -7.18,16 -16,16 z m -48,-64 0,48 48.016,0 -0.016,-48 -48,0 z"
             style="fill:#b4b6bc" /></g></g><g
         id="g77"
         transform="translate(0,104.00075)"><g
           id="g79"><path
             inkscape:connector-curvature="0"
             id="path81"
             d="m 184,296 c -2.047,0 -4.094,-0.781 -5.656,-2.344 l -16,-16 c -3.125,-3.125 -3.125,-8.188 0,-11.313 3.125,-3.125 8.188,-3.125 11.313,0 L 184,276.687 218.344,242.343 c 3.125,-3.125 8.188,-3.125 11.313,0 3.125,3.125 3.125,8.187 0,11.312 l -40,40 C 188.094,295.219 186.047,296 184,296 Z"
             style="fill:#ff4f19" /></g></g></g><g
       id="g4406"
       transform="matrix(0.61034445,0.38759848,-0.38759848,0.61034445,290.31684,-45.017694)"><g
         id="g4408"><path
           id="path4410"
           d="m 280.041,376 c -18.068,0 -62.013,0 -80.082,0 -4.418,0 -7.959,3.582 -7.959,8 l 0,0 c 0,49 48,104 48,104 0,0 48,-55 48,-104 l 0,0 c 0,-4.418 -3.54,-8 -7.959,-8 z"
           style="fill:#b4b6bc"
           inkscape:connector-curvature="0" /></g><g
         id="g4412"><path
           id="path4414"
           d="m 200,280 80,0 c 4.418,0 8,-3.582 8,-8 l 0,-216 c 0,-4.418 -3.582,-8 -8,-8 l -40,0 -40,0 c -4.418,0 -8,3.582 -8,8 l 0,216 c 0,4.418 3.582,8 8,8 z"
           style="fill:#b4b6bc"
           inkscape:connector-curvature="0" /></g><g
         id="g4416"><path
           id="path4418"
           d="m 272,48 0,-32 C 272,7.163 264.837,0 256,0 l -32,0 c -8.837,0 -16,7.163 -16,16 l 0,32 64,0 z"
           style="fill:#009bca"
           inkscape:connector-curvature="0" /></g><g
         id="g4420"><path
           id="path4422"
           d="m 272,344 c 8.837,0 16,7.163 16,16 0,8.837 -7.163,16 -16,16 l -64,0 c -8.837,0 -16,-7.163 -16,-16 0,-8.837 7.163,-16 16,-16 l 64,0 z"
           style="fill:#009bca"
           inkscape:connector-curvature="0" /></g><g
         id="g4424"><path
           id="path4426"
           d="m 272,344 -32.219,0 0,32 32.219,0 c 8.836,0 16,-7.164 16,-16 0,-8.837 -7.163,-16 -16,-16 z"
           style="fill:#4bb9ec"
           inkscape:connector-curvature="0" /></g><g
         id="g4428"><path
           id="path4430"
           d="m 272,312 c 8.837,0 16,7.163 16,16 0,8.837 -7.163,16 -16,16 l -64,0 c -8.837,0 -16,-7.163 -16,-16 0,-8.837 7.163,-16 16,-16 l 64,0 z"
           style="fill:#009bca"
           inkscape:connector-curvature="0" /></g><g
         id="g4432"><path
           id="path4434"
           d="m 272,312 -32.219,0 0,32 32.219,0 c 8.836,0 16,-7.164 16,-16 0,-8.837 -7.163,-16 -16,-16 z"
           style="fill:#4bb9ec"
           inkscape:connector-curvature="0" /></g><g
         id="g4436"><path
           id="path4438"
           d="m 272,280 c 8.837,0 16,7.163 16,16 0,8.837 -7.163,16 -16,16 l -64,0 c -8.837,0 -16,-7.163 -16,-16 0,-8.837 7.163,-16 16,-16 l 64,0 z"
           style="fill:#009bca"
           inkscape:connector-curvature="0" /></g><g
         id="g4440"><path
           id="path4442"
           d="m 272,280 -32.219,0 0,32 32.219,0 c 8.836,0 16,-7.164 16,-16 0,-8.837 -7.163,-16 -16,-16 z"
           style="fill:#4bb9ec"
           inkscape:connector-curvature="0" /></g><g
         id="g4444"><path
           id="path4446"
           d="m 239.781,376 c -15.43,0 -30.83,0 -39.822,0 -4.418,0 -7.959,3.582 -7.959,8 l 0,0 c 0,47.754 45.463,101.057 47.781,103.744 l 0,-111.744 z"
           style="fill:#868491"
           inkscape:connector-curvature="0" /></g><g
         id="g4448"><path
           id="path4450"
           d="M 239.781,48 200,48 c -4.418,0 -8,3.582 -8,8 l 0,216 c 0,4.418 3.582,8 8,8 l 39.781,0 0,-232 z"
           style="fill:#868491"
           inkscape:connector-curvature="0" /></g><g
         id="g4452"><g
           id="g4454"><path
             id="path4456"
             d="m 320,248 c -4.422,0 -8,-3.582 -8,-8 l 0,-144 c 0,-4.41 -3.586,-8 -8,-8 l -112,0 c -4.422,0 -8,-3.582 -8,-8 0,-4.418 3.578,-8 8,-8 l 112,0 c 13.234,0 24,10.766 24,24 l 0,144 c 0,4.418 -3.578,8 -8,8 z"
             style="fill:#5c546a"
             inkscape:connector-curvature="0" /></g></g><g
         id="g4458"><path
           id="path4460"
           d="m 256,0 -16.219,0 0,48 32.219,0 0,-32 C 272,7.163 264.837,0 256,0 Z"
           style="fill:#4bb9ec"
           inkscape:connector-curvature="0" /></g><g
         id="g4462"><path
           id="path4464"
           d="m 232,504 c 0,4.418 3.578,8 8,8 4.422,0 8,-3.582 8,-8 l 0,-25.914 -16,0 0,25.914 z"
           style="fill:#5c546a"
           inkscape:connector-curvature="0" /></g></g></g></svg>