<?xml version="1.0" encoding="UTF-8" standalone="no"?>
<!-- Generator: Adobe Illustrator 19.0.0, SVG Export Plug-In . SVG Version: 6.00 Build 0)  -->

<svg
   xmlns:dc="http://purl.org/dc/elements/1.1/"
   xmlns:cc="http://creativecommons.org/ns#"
   xmlns:rdf="http://www.w3.org/1999/02/22-rdf-syntax-ns#"
   xmlns:svg="http://www.w3.org/2000/svg"
   xmlns="http://www.w3.org/2000/svg"
   xmlns:sodipodi="http://sodipodi.sourceforge.net/DTD/sodipodi-0.dtd"
   xmlns:inkscape="http://www.inkscape.org/namespaces/inkscape"
   version="1.1"
   id="Layer_1"
   x="0px"
   y="0px"
   viewBox="0 0 512 512"
   style="enable-background:new 0 0 512 512;"
   xml:space="preserve"
   inkscape:version="0.91 r"
   sodipodi:docname="poll.svg"
   inkscape:export-filename="/home/ubuntu/Downloads/rect4398.png"
   inkscape:export-xdpi="11"
   inkscape:export-ydpi="11"><metadata
     id="metadata117"><rdf:RDF><cc:Work
         rdf:about=""><dc:format>image/svg+xml</dc:format><dc:type
           rdf:resource="http://purl.org/dc/dcmitype/StillImage" /><dc:title></dc:title></cc:Work></rdf:RDF></metadata><defs
     id="defs115" /><sodipodi:namedview
     pagecolor="#ffffff"
     bordercolor="#666666"
     borderopacity="1"
     objecttolerance="10"
     gridtolerance="10"
     guidetolerance="10"
     inkscape:pageopacity="0"
     inkscape:pageshadow="2"
     inkscape:window-width="1871"
     inkscape:window-height="1056"
     id="namedview113"
     showgrid="false"
     inkscape:zoom="0.65186406"
     inkscape:cx="474.83321"
     inkscape:cy="183.04132"
     inkscape:window-x="49"
     inkscape:window-y="24"
     inkscape:window-maximized="1"
     inkscape:current-layer="Layer_1" /><g
     id="g83" /><g
     id="g85" /><g
     id="g87" /><g
     id="g89" /><g
     id="g91" /><g
     id="g93" /><g
     id="g95" /><g
     id="g97" /><g
     id="g99" /><g
     id="g101" /><g
     id="g103" /><g
     id="g105" /><g
     id="g107" /><g
     id="g109" /><g
     id="g111" /><g
     id="g5"
     transform="matrix(1.2499969,0,0,1.2499969,-63.999206,-88.999785)" /><g
     id="g4297"
     transform="translate(-6.8e-6,-7.2587891e-6)"><g
       style="stroke:#b4b6bc;stroke-width:8.22857094;stroke-miterlimit:4;stroke-dasharray:none;stroke-opacity:1"
       transform="matrix(1.4583334,0,0,1.4583334,-111.50001,-152.33336)"
       id="g13"><g
         style="stroke:#b4b6bc;stroke-width:8.22857094;stroke-miterlimit:4;stroke-dasharray:none;stroke-opacity:1"
         id="g15"><path
           style="fill:#b4b6bc;stroke:#b4b6bc;stroke-width:8.22857094;stroke-miterlimit:4;stroke-dasharray:none;stroke-opacity:1"
           d="m 200,216 -48,0 c -8.82,0 -16,-7.18 -16,-16 l 0,-48 c 0,-8.82 7.18,-16 16,-16 l 48,0 c 8.82,0 16,7.18 16,16 l 0,48 c 0,8.82 -7.18,16 -16,16 z m -48,-64 0,48 48.016,0 -0.016,-48 -48,0 z"
           id="path17"
           inkscape:connector-curvature="0" /></g></g><g
       style="stroke:#868491;stroke-width:8.22857094;stroke-miterlimit:4;stroke-dasharray:none;stroke-opacity:1"
       transform="matrix(1.4583334,0,0,1.4583334,-111.50001,-164.00003)"
       id="g25"><g
         style="stroke:#868491;stroke-width:8.22857094;stroke-miterlimit:4;stroke-dasharray:none;stroke-opacity:1"
         id="g27"><path
           style="fill:#868491;stroke:#868491;stroke-width:8.22857094;stroke-miterlimit:4;stroke-dasharray:none;stroke-opacity:1"
           d="m 360,192 -120,0 c -4.422,0 -8,-3.578 -8,-8 0,-4.422 3.578,-8 8,-8 l 120,0 c 4.422,0 8,3.578 8,8 0,4.422 -3.578,8 -8,8 z"
           id="path29"
           inkscape:connector-curvature="0" /></g></g><g
       transform="matrix(1.4583334,0,0,1.4583334,-111.50001,-175.6667)"
       id="g37"><g
         id="g39"><path
           style="fill:#868491;stroke:#868491;stroke-width:8.22857094;stroke-miterlimit:4;stroke-dasharray:none;stroke-opacity:1"
           d="m 360,304 -120,0 c -4.422,0 -8,-3.578 -8,-8 0,-4.422 3.578,-8 8,-8 l 120,0 c 4.422,0 8,3.578 8,8 0,4.422 -3.578,8 -8,8 z"
           id="path41"
           inkscape:connector-curvature="0" /></g></g><g
       style="stroke:#868491;stroke-width:8.22857094;stroke-miterlimit:4;stroke-dasharray:none;stroke-opacity:1"
       transform="matrix(1.4583334,0,0,1.4583334,-111.50001,-175.6667)"
       id="g49"><g
         style="stroke:#868491;stroke-width:8.22857094;stroke-miterlimit:4;stroke-dasharray:none;stroke-opacity:1"
         id="g51"><path
           style="fill:#868491;stroke:#868491;stroke-width:8.22857094;stroke-miterlimit:4;stroke-dasharray:none;stroke-opacity:1"
           d="m 360,408 -120,0 c -4.422,0 -8,-3.578 -8,-8 0,-4.422 3.578,-8 8,-8 l 120,0 c 4.422,0 8,3.578 8,8 0,4.422 -3.578,8 -8,8 z"
           id="path53"
           inkscape:connector-curvature="0" /></g></g><g
       transform="matrix(1.4583334,0,0,1.4583334,-111.50001,-152.33336)"
       id="g65"><g
         id="g67"><path
           style="fill:#b4b6bc;stroke:#b4b6bc;stroke-width:8.22857094;stroke-miterlimit:4;stroke-dasharray:none;stroke-opacity:1"
           d="m 200,320 -48,0 c -8.82,0 -16,-7.18 -16,-16 l 0,-48 c 0,-8.82 7.18,-16 16,-16 l 48,0 c 8.82,0 16,7.18 16,16 l 0,48 c 0,8.82 -7.18,16 -16,16 z m -48,-64 0,48 48.016,0 -0.016,-48 -48,0 z"
           id="path69"
           inkscape:connector-curvature="0" /></g></g><g
       transform="matrix(1.4583334,0,0,1.4583334,-111.50001,-152.33336)"
       id="g71"><g
         id="g73"><path
           style="fill:#b4b6bc;stroke:#b4b6bc;stroke-width:8.22857094;stroke-miterlimit:4;stroke-dasharray:none;stroke-opacity:1"
           d="m 200,424 -48,0 c -8.82,0 -16,-7.18 -16,-16 l 0,-48 c 0,-8.82 7.18,-16 16,-16 l 48,0 c 8.82,0 16,7.18 16,16 l 0,48 c 0,8.82 -7.18,16 -16,16 z m -48,-64 0,48 48.016,0 -0.016,-48 -48,0 z"
           id="path75"
           inkscape:connector-curvature="0" /></g></g><g
       style="stroke:#ff4f19;stroke-width:8.22857094;stroke-miterlimit:4;stroke-dasharray:none;stroke-opacity:1"
       transform="matrix(1.4583334,0,0,1.4583334,-111.50001,-0.66559706)"
       id="g77"><g
         style="stroke:#ff4f19;stroke-width:8.22857094;stroke-miterlimit:4;stroke-dasharray:none;stroke-opacity:1"
         id="g79"><path
           style="fill:#ff4f19;stroke:#ff4f19;stroke-width:8.22857094;stroke-miterlimit:4;stroke-dasharray:none;stroke-opacity:1"
           d="m 184,296 c -2.047,0 -4.094,-0.781 -5.656,-2.344 l -16,-16 c -3.125,-3.125 -3.125,-8.188 0,-11.313 3.125,-3.125 8.188,-3.125 11.313,0 L 184,276.687 218.344,242.343 c 3.125,-3.125 8.188,-3.125 11.313,0 3.125,3.125 3.125,8.187 0,11.312 l -40,40 C 188.094,295.219 186.047,296 184,296 Z"
           id="path81"
           inkscape:connector-curvature="0" /></g></g></g></svg>